<?xml version="1.0" encoding="UTF-8"?>
<svg width="100px" height="100px" viewBox="0 0 100 100" version="1.1" xmlns="http://www.w3.org/2000/svg" xmlns:xlink="http://www.w3.org/1999/xlink">
    <!-- Generator: Sketch 52.6 (67491) - http://www.bohemiancoding.com/sketch -->
    <title>pause</title>
    <desc>Created with Sketch.</desc>
    <g id="pause" stroke="none" stroke-width="1" fill="none" fill-rule="evenodd">
        <path d="M65.0240385,69.9519231 L65.0240385,30.0480769 L54.9278846,30.0480769 L54.9278846,69.9519231 L65.0240385,69.9519231 Z M45.0721154,69.9519231 L45.0721154,30.0480769 L34.9759615,30.0480769 L34.9759615,69.9519231 L45.0721154,69.9519231 Z M50,0 C59.1346611,0 67.5881022,2.28363101 75.3605769,6.85096154 C82.8926659,11.1779062 88.8220937,17.1073341 93.1490385,24.6394231 C97.716369,32.4118978 100,40.8653389 100,50 C100,59.1346611 97.716369,67.5881022 93.1490385,75.3605769 C88.8220937,82.8926659 82.8926659,88.8220937 75.3605769,93.1490385 C67.5881022,97.716369 59.1346611,100 50,100 C40.8653389,100 32.4118978,97.716369 24.6394231,93.1490385 C17.1073341,88.7419651 11.1779062,82.7724736 6.85096154,75.2403846 C2.28363101,67.4679099 0,59.0545325 0,50 C0,40.9454675 2.28363101,32.5320901 6.85096154,24.7596154 C11.2580349,17.2275264 17.2275264,11.2580349 24.7596154,6.85096154 C32.5320901,2.28363101 40.9454675,0 50,0 Z" id="pause_circle_filled---material" fill="#c94c4c88"></path>
    </g>
</svg>